<svg width="512" height="512" viewBox="0 0 512 512" fill="none" xmlns="http://www.w3.org/2000/svg">
  <!-- Background circle -->
  <circle cx="256" cy="256" r="256" fill="#3b82f6"/>

  <!-- Inner circle for depth -->
  <circle cx="256" cy="256" r="220" fill="#2563eb"/>

  <!-- House icon -->
  <path d="M256 120L128 220V360C128 371 137 380 148 380H212V300C212 289 221 280 232 280H280C291 280 300 289 300 300V380H364C375 380 384 371 384 360V220L256 120Z" fill="white"/>

  <!-- Heart inside house -->
  <path d="M256 240C248 232 236 232 228 240C220 248 220 260 228 268L256 296L284 268C292 260 292 248 284 240C276 232 264 232 256 240Z" fill="#ef4444"/>

  <!-- Checkmark badge -->
  <circle cx="380" cy="380" r="60" fill="#22c55e"/>
  <path d="M355 380L370 395L405 360" stroke="white" stroke-width="12" stroke-linecap="round" stroke-linejoin="round"/>
</svg>
